<svg aria-hidden="true" xmlns="http://www.w3.org/2000/svg" xmlns:xlink="http://www.w3.org/1999/xlink"><symbol viewBox="0 0 39 36" id="burger" xmlns="http://www.w3.org/2000/svg">
<path d="M36.9293 18.9538C37.6237 19.6482 38.0172 20.5895 38.0172 21.5694C38.0172 22.5493 37.6237 23.4906 36.9293 24.185C36.2349 24.8794 35.2936 25.2729 34.3138 25.2729H4.6859C3.70371 25.2729 2.76164 24.8794 2.06723 24.185C1.37283 23.4906 0.982422 22.5493 0.982422 21.5694C0.982422 20.5895 1.37283 19.6482 2.06723 18.9538C2.76164 18.2594 3.70371 17.8659 4.6859 17.8659H34.3138C35.2936 17.8659 36.2349 18.2594 36.9293 18.9538ZM36.4201 28.1045C36.6516 28.336 36.7827 28.6523 36.7827 28.9764V30.2109C36.7827 31.4531 36.2658 32.7802 35.3399 33.706C34.4141 34.6319 33.087 35.1488 31.8448 35.1488H7.15489C5.84556 35.1488 4.58946 34.6319 3.66359 33.706C2.73695 32.7802 2.21692 31.4531 2.21692 30.2109V28.9764C2.21692 28.6523 2.34731 28.336 2.57878 28.1045C2.81024 27.873 3.12427 27.7419 3.45141 27.7419H35.5483C35.8723 27.7419 36.1886 27.873 36.4201 28.1045ZM3.63581 15.15C3.2917 14.9803 2.99079 14.7411 2.75469 14.4402C2.5186 14.1393 2.35502 13.7921 2.27478 13.4217C2.19454 13.0437 2.20148 12.6579 2.2933 12.2876C3.98996 5.59968 11.0513 0.583008 19.4998 0.583008C27.9484 0.583008 35.0082 5.59968 36.7056 12.2876C36.7982 12.6579 36.8059 13.0437 36.721 13.4217C36.6439 13.7921 36.4818 14.1393 36.2427 14.4402C35.9417 14.7411 35.7103 14.9803 35.3631 15.15C35.0236 15.3121 34.6455 15.3969 34.2598 15.3969H4.7376C4.35645 15.3969 3.97916 15.3121 3.63581 15.15ZM28.5039 7.11811C28.2725 7.34958 28.1413 7.66592 28.1413 7.98997C28.1413 8.23687 28.2107 8.47605 28.3496 8.67666C28.4885 8.87726 28.6119 9.03929 28.9051 9.13188C29.1289 9.15503 29.3758 9.24761 29.615 9.20132C29.8542 9.15503 30.0779 9.03929 30.2476 8.86183C30.4251 8.69209 30.5408 8.46834 30.5871 8.22916C30.6334 7.98997 30.5408 7.74307 30.5177 7.51932C30.4251 7.22613 30.2631 7.10268 30.0625 6.9638C29.8619 6.82492 29.6227 6.68604 29.3758 6.68604C29.0517 6.68604 28.7354 6.88664 28.5039 7.11811ZM18.628 4.64835C18.3965 4.87982 18.2653 5.19384 18.2653 5.52098C18.2653 5.7648 18.3348 6.00707 18.4737 6.20767C18.6125 6.40828 18.736 6.5703 19.0292 6.66289C19.2529 6.68604 19.4998 6.77863 19.739 6.73233C19.9782 6.68604 20.202 6.5703 20.3717 6.39285C20.5492 6.2231 20.6649 5.99935 20.7112 5.76171C20.7575 5.52253 20.6649 5.27409 20.6417 5.04879C20.5492 4.82272 20.3871 4.62983 20.1865 4.49481C19.9859 4.35902 19.7467 4.21705 19.4998 4.21705C19.1758 4.21705 18.8594 4.41688 18.628 4.64835ZM8.75202 7.11811C8.52055 7.34958 8.38939 7.66592 8.38939 7.98997C8.38939 8.23687 8.45883 8.47605 8.59771 8.67666C8.73659 8.87726 8.86004 9.03929 9.15323 9.13188C9.37698 9.15503 9.62388 9.24761 9.86306 9.20132C10.1022 9.15503 10.326 9.03929 10.4957 8.86183C10.6732 8.69209 10.7889 8.46834 10.8352 8.22916C10.8815 7.98997 10.7889 7.74307 10.7658 7.51932C10.6732 7.22613 10.5112 7.10268 10.3106 6.9638C10.11 6.82492 9.87078 6.68604 9.62388 6.68604C9.29983 6.68604 8.98349 6.88664 8.75202 7.11811Z"/>
</symbol><symbol viewBox="0 0 36 26" id="car" xmlns="http://www.w3.org/2000/svg">
<path d="M31.0909 6.5H26.1818V0H3.27273C1.46455 0 0 1.45437 0 3.25V21.125H3.27273C3.27273 23.8144 5.47364 26 8.18182 26C10.89 26 13.0909 23.8144 13.0909 21.125H22.9091C22.9091 23.8144 25.11 26 27.8182 26C30.5264 26 32.7273 23.8144 32.7273 21.125H36V13L31.0909 6.5ZM8.18182 23.5625C6.82364 23.5625 5.72727 22.4738 5.72727 21.125C5.72727 19.7763 6.82364 18.6875 8.18182 18.6875C9.54 18.6875 10.6364 19.7763 10.6364 21.125C10.6364 22.4738 9.54 23.5625 8.18182 23.5625ZM30.2727 8.9375L33.4882 13H26.1818V8.9375H30.2727ZM27.8182 23.5625C26.46 23.5625 25.3636 22.4738 25.3636 21.125C25.3636 19.7763 26.46 18.6875 27.8182 18.6875C29.1764 18.6875 30.2727 19.7763 30.2727 21.125C30.2727 22.4738 29.1764 23.5625 27.8182 23.5625Z"/>
</symbol><symbol viewBox="0 0 42 42" id="clock" xmlns="http://www.w3.org/2000/svg">
<path d="M21.061 0.870117C9.90715 0.870117 0.870117 9.90715 0.870117 21.061C0.870117 32.2148 9.90715 41.2518 21.061 41.2518C32.2148 41.2518 41.2518 32.2148 41.2518 21.061C41.2518 9.90715 32.2148 0.870117 21.061 0.870117ZM28.591 26.3529L26.9627 28.3883C26.8558 28.5219 26.7237 28.6331 26.5739 28.7156C26.424 28.7982 26.2594 28.8504 26.0894 28.8693C25.9193 28.8882 25.7472 28.8734 25.5829 28.8258C25.4186 28.7782 25.2653 28.6987 25.1317 28.5918L19.6769 24.5439C19.2958 24.2387 18.9881 23.8518 18.7767 23.4117C18.5653 22.9716 18.4556 22.4895 18.4557 22.0013V9.33724C18.4557 8.99176 18.5929 8.66043 18.8372 8.41614C19.0815 8.17185 19.4128 8.03461 19.7583 8.03461H22.3636C22.7091 8.03461 23.0404 8.17185 23.2847 8.41614C23.529 8.66043 23.6662 8.99176 23.6662 9.33724V21.061L28.3883 24.5211C28.5219 24.628 28.6332 24.7602 28.7157 24.9102C28.7983 25.0601 28.8504 25.2249 28.8693 25.395C28.8881 25.5651 28.8732 25.7373 28.8255 25.9016C28.7777 26.066 28.698 26.2193 28.591 26.3529Z"/>
</symbol><symbol viewBox="0 0 13 27" id="fb" xmlns="http://www.w3.org/2000/svg">
<path d="M12.3943 8.91055H8.34886V6.25732C8.34886 5.2609 9.00926 5.02859 9.4744 5.02859C9.93848 5.02859 12.3292 5.02859 12.3292 5.02859V0.648158L8.39755 0.632812C4.03299 0.632812 3.03975 3.89988 3.03975 5.99062V8.91055H0.515625V13.4243H3.03975C3.03975 19.2171 3.03975 26.1968 3.03975 26.1968H8.34886C8.34886 26.1968 8.34886 19.1483 8.34886 13.4243H11.9313L12.3943 8.91055Z"/>
</symbol><symbol viewBox="0 0 28 28" id="inst" xmlns="http://www.w3.org/2000/svg">
<path d="M13.9204 7.24316C10.2167 7.24316 7.14795 10.259 7.14795 14.0157C7.14795 17.7723 10.1638 20.7881 13.9204 20.7881C17.677 20.7881 20.6929 17.7194 20.6929 14.0157C20.6929 10.3119 17.6241 7.24316 13.9204 7.24316ZM13.9204 18.3543C11.5395 18.3543 9.58181 16.3966 9.58181 14.0157C9.58181 11.6347 11.5395 9.67703 13.9204 9.67703C16.3014 9.67703 18.2591 11.6347 18.2591 14.0157C18.2591 16.3966 16.3014 18.3543 13.9204 18.3543Z"/>
<path d="M20.9577 8.61883C21.8052 8.61883 22.4921 7.93186 22.4921 7.08444C22.4921 6.23702 21.8052 5.55005 20.9577 5.55005C20.1103 5.55005 19.4233 6.23702 19.4233 7.08444C19.4233 7.93186 20.1103 8.61883 20.9577 8.61883Z"/>
<path d="M24.9258 3.11609C23.5501 1.68752 21.5925 0.946777 19.3703 0.946777H8.47079C3.86761 0.946777 0.798828 4.01556 0.798828 8.61874V19.4653C0.798828 21.7404 1.53957 23.6981 3.02105 25.1267C4.44962 26.5023 6.35438 27.1902 8.5237 27.1902H19.3173C21.5925 27.1902 23.4972 26.4494 24.8729 25.1267C26.3015 23.751 27.0422 21.7933 27.0422 19.5182V8.61874C27.0422 6.39651 26.3015 4.49175 24.9258 3.11609ZM24.7142 19.5182C24.7142 21.1584 24.1322 22.4812 23.1798 23.3806C22.2274 24.2801 20.9046 24.7563 19.3173 24.7563H8.5237C6.93639 24.7563 5.61364 24.2801 4.66126 23.3806C3.70888 22.4283 3.23269 21.1055 3.23269 19.4653V8.61874C3.23269 7.03143 3.70888 5.70868 4.66126 4.7563C5.56073 3.85683 6.93639 3.38064 8.5237 3.38064H19.4232C21.0105 3.38064 22.3332 3.85683 23.2856 4.80921C24.1851 5.76159 24.7142 7.08434 24.7142 8.61874V19.5182Z"/>
</symbol><symbol viewBox="0 0 21 33" id="map" xmlns="http://www.w3.org/2000/svg">
<path d="M10.2135 0C4.57168 0 0 4.59736 0 10.2734C0 20.0846 10.2135 32.875 10.2135 32.875C10.2135 32.875 20.427 20.0846 20.427 10.2734C20.427 4.59736 15.8553 0 10.2135 0ZM10.2135 15.2561C7.54242 15.2561 5.38499 13.0815 5.38499 10.4019C5.38499 7.7222 7.55098 5.53909 10.2135 5.53909C12.8846 5.53909 15.042 7.71364 15.042 10.4019C15.042 13.0815 12.8846 15.2561 10.2135 15.2561Z"/>
</symbol><symbol viewBox="0 0 26 23" id="twit" xmlns="http://www.w3.org/2000/svg">
<path d="M25.3027 3.05879C24.3654 3.52924 23.3487 3.86463 22.2738 4.04383C23.3464 3.33128 24.1436 2.24495 24.484 0.977703C23.4805 1.6388 22.3585 2.13699 21.1525 2.43412C20.1296 1.44172 18.7105 0.85781 17.1739 0.929952C14.2239 1.06845 11.9443 3.57259 12.0829 6.52314C12.1025 6.94125 12.1687 7.34658 12.2785 7.73397C7.82793 7.71936 3.7912 5.7777 1.00446 2.66913C0.581619 3.47936 0.361465 4.40934 0.407475 5.38934C0.494482 7.24255 1.51426 8.83372 2.99274 9.72421C2.11609 9.73729 1.28074 9.53547 0.541495 9.16916C0.542008 9.19139 0.543075 9.21411 0.544143 9.23684C0.665644 11.8248 2.60858 13.8971 5.07583 14.2739C4.6333 14.4165 4.16435 14.5042 3.677 14.5271C3.33236 14.5433 2.9962 14.5257 2.66711 14.4781C3.44704 16.5684 5.49225 18.0209 7.83166 17.9539C6.07057 19.4728 3.80763 20.4351 1.30426 20.5526C0.873463 20.5728 0.446761 20.5674 0.0263191 20.5374C2.4624 21.9429 5.31173 22.6948 8.32836 22.5532C18.1553 22.0918 23.1461 13.6994 22.8147 6.63963C22.8038 6.40811 22.7882 6.17734 22.7674 5.94841C23.7755 5.14777 24.6373 4.16383 25.3027 3.05879Z"/>
</symbol></svg>